<svg version="1.1" id="Layer_1" xmlns="http://www.w3.org/2000/svg" xmlns:xlink="http://www.w3.org/1999/xlink" x="0px" y="0px"
	 width="100%" viewBox="0 0 229 64" enable-background="new 0 0 229 64" xml:space="preserve">
<path fill="#FCFDFC" opacity="1.000000" stroke="none" 
	d="
M164.000000,65.000000 
	C109.333344,65.000000 55.166679,65.000000 1.000015,65.000000 
	C1.000010,43.666676 1.000010,22.333351 1.000005,1.000020 
	C77.333313,1.000014 153.666626,1.000014 229.999954,1.000007 
	C229.999969,22.333313 229.999969,43.666626 229.999985,64.999969 
	C208.166672,65.000000 186.333328,65.000000 164.000000,65.000000 
M172.998199,49.019165 
	C172.998199,49.019165 173.019943,49.075935 173.429214,49.629528 
	C174.315964,49.767105 175.202698,49.904682 176.747528,50.146793 
	C178.205048,50.072121 179.662582,49.997444 181.890701,50.035870 
	C185.444107,49.584064 184.270523,47.505898 183.029495,45.183353 
	C182.534912,45.283333 182.040314,45.383312 181.052429,45.853218 
	C180.872864,46.220554 180.693298,46.587894 179.936859,46.894558 
	C179.357559,46.914337 178.778275,46.934113 177.960846,46.386692 
	C177.606125,46.235500 177.251404,46.084312 176.439697,45.874954 
	C176.439697,45.874954 175.996338,45.999973 175.949677,45.342075 
	C175.321487,45.254147 174.693298,45.166218 173.477798,45.064190 
	C173.282227,45.074005 173.086639,45.083824 172.181046,45.045975 
	C171.813049,46.003452 171.445068,46.960930 170.960434,48.439972 
	C170.966888,48.618000 170.973328,48.796032 171.123428,49.635033 
	C171.768356,49.430187 172.413284,49.225342 172.998199,49.019165 
M152.627274,45.871773 
	C152.627274,45.871773 152.207794,45.816025 151.406891,45.520302 
	C150.862167,45.356270 150.317444,45.192238 149.373688,44.884182 
	C148.884903,45.189919 148.396133,45.495655 147.903488,45.857559 
	C147.903488,45.857559 147.867416,45.900784 147.332108,45.965382 
	C147.473389,47.033134 147.614685,48.100887 148.236664,49.736633 
	C149.407654,49.586460 150.578659,49.436287 152.057449,49.382374 
	C152.057449,49.382374 152.353455,49.254360 152.616592,49.210526 
	C152.616592,49.210526 152.868378,49.106174 153.566422,48.909622 
	C153.385361,47.946766 153.204300,46.983906 152.627274,45.871773 
M122.449501,48.696323 
	C123.222336,48.478153 123.995163,48.259983 124.767998,48.041813 
	C124.384689,47.304466 124.001381,46.567120 123.618073,45.829773 
	C123.085228,46.202045 122.552376,46.574318 122.025238,47.543175 
	C122.035103,47.741798 122.044975,47.940422 122.449501,48.696323 
M126.244606,46.363892 
	C126.630775,47.329777 127.016937,48.295658 127.921181,49.516857 
	C128.776505,49.463898 129.631821,49.410934 131.058670,49.126038 
	C132.939819,48.090191 133.913956,47.034817 130.567810,45.623962 
	C129.365067,45.783047 128.162338,45.942131 126.244606,46.363892 
M49.543159,34.440262 
	C48.656139,35.735325 47.769119,37.030388 46.314285,37.905174 
	C41.495739,29.634218 36.677197,21.363262 31.636681,12.711294 
	C29.415016,16.510399 27.213953,19.673727 25.696915,23.136707 
	C24.999878,24.727848 24.991547,27.254887 25.793356,28.759295 
	C29.376040,35.481380 33.320988,42.013302 37.250645,48.544388 
	C37.837620,49.519932 39.039097,50.125740 40.697144,51.321667 
	C44.796040,51.524117 48.894936,51.726570 53.700233,51.983219 
	C55.868557,48.349873 58.036880,44.716530 60.789238,40.740635 
	C63.305676,36.647350 65.885971,32.591057 68.293533,28.434704 
	C68.893486,27.398964 69.555168,25.727165 69.128632,24.883621 
	C67.163078,20.996418 64.822800,17.298702 62.103813,12.657171 
	C59.987480,16.525293 58.492111,19.258455 56.490669,22.439724 
	C54.346889,26.297318 52.203110,30.154911 49.543159,34.440262 
M115.603287,38.925278 
	C115.603287,32.992954 115.603287,27.060633 115.603287,21.274094 
	C106.256599,18.088680 107.830925,27.169966 104.460205,30.450039 
	C101.094131,27.181456 102.745499,18.029966 93.788849,21.220398 
	C93.788849,27.489107 93.788849,33.572685 93.788849,39.967709 
	C95.683174,39.868305 97.251907,39.785988 99.037277,39.692303 
	C99.037277,36.856712 99.037277,34.408070 99.037277,31.959427 
	C100.436455,33.717934 101.101120,35.698502 102.031967,37.544865 
	C102.493477,38.460300 103.650444,39.884766 104.131645,39.753635 
	C105.168488,39.471104 106.268700,38.493286 106.806190,37.507359 
	C107.796143,35.691490 108.399216,33.664707 109.163521,31.725822 
	C109.528450,31.831173 109.893387,31.936523 110.258316,32.041874 
	C110.258316,34.636333 110.258316,37.230793 110.258316,40.033939 
	C112.143890,39.890213 113.620911,39.777626 115.603287,38.925278 
M170.792465,39.802048 
	C180.720261,38.138756 172.021881,30.268911 175.180115,26.200504 
	C175.653442,25.590773 174.264816,23.334433 173.449158,22.018532 
	C173.093811,21.445259 172.016556,21.059687 171.256042,21.040972 
	C167.361160,20.945129 163.462646,20.996634 159.687759,20.996634 
	C159.687759,27.531109 159.687759,33.611893 159.687759,39.913147 
	C163.321854,39.913147 166.628799,39.913147 170.792465,39.802048 
M140.653305,28.924562 
	C138.622070,22.414515 134.332840,19.410738 128.176895,20.187243 
	C122.583687,20.892763 119.117508,24.307566 118.805443,29.419802 
	C118.443329,35.351871 122.092590,39.588020 128.064056,40.167423 
	C135.572784,40.895981 139.664612,37.520859 140.653305,28.924562 
M211.550400,28.810570 
	C213.455429,21.691641 208.354462,19.390871 196.420227,21.289778 
	C196.420227,27.458189 196.420227,33.626602 196.420227,39.986603 
	C198.537231,39.888123 200.260666,39.807953 202.250687,39.715382 
	C202.250687,37.653038 202.250687,36.087254 202.250687,33.442425 
	C205.199066,37.434402 206.954056,42.133770 212.623779,39.303619 
	C211.280853,37.041645 209.945908,34.793118 208.604691,32.534019 
	C209.496033,31.497587 210.345886,30.509384 211.550400,28.810570 
M187.574249,24.947491 
	C192.989655,24.906675 192.989655,24.906675 192.274704,21.058329 
	C187.845139,21.058329 183.441315,21.058329 179.091476,21.058329 
	C179.091476,27.465242 179.091476,33.532436 179.091476,39.561871 
	C192.519516,40.861324 193.344437,40.628151 192.531113,36.082237 
	C190.269653,34.442181 185.645004,37.799374 184.456329,32.340027 
	C187.333664,32.100227 189.271774,31.938705 191.209885,31.777184 
	C191.406189,31.221264 191.602493,30.665342 191.798798,30.109423 
	C190.412125,29.420809 189.027542,28.727943 187.638046,28.045092 
	C186.738144,27.602844 185.831039,27.175236 184.927170,26.741072 
	C185.506088,26.146477 186.085007,25.551882 187.574249,24.947491 
M143.291046,31.474783 
	C143.291046,34.228626 143.291046,36.982468 143.291046,39.798470 
	C148.146194,39.798470 152.262970,39.798470 156.662338,39.798470 
	C156.662338,38.415257 156.662338,37.201557 156.662338,35.854088 
	C154.383713,35.666687 152.276215,35.493362 149.594437,35.272804 
	C149.594437,30.409786 149.594437,25.697245 149.594437,20.922134 
	C147.243759,20.922134 145.490097,20.922134 143.291000,20.922134 
	C143.291000,24.292643 143.291000,27.404673 143.291046,31.474783 
M12.073565,52.085434 
	C15.889307,52.085434 19.705050,52.085434 24.195662,52.085434 
	C21.350601,47.208714 19.038748,43.245964 16.458681,38.823467 
	C14.101432,42.872509 11.924335,46.517403 9.913069,50.251617 
	C9.756869,50.541630 10.763353,51.457867 12.073565,52.085434 
M83.552147,49.396240 
	C81.583252,46.072681 79.614349,42.749126 77.279793,38.808315 
	C74.637703,43.457737 72.403870,47.388718 69.767212,52.028584 
	C74.401848,52.028584 78.165581,52.122726 81.916229,51.943256 
	C82.605064,51.910294 83.240753,50.766785 83.552147,49.396240 
M140.031845,48.219589 
	C139.435562,47.186993 138.839279,46.154396 138.242996,45.121796 
	C137.833588,46.038925 137.424164,46.956059 137.014755,47.873192 
	C137.959030,48.245991 138.903320,48.618790 140.031845,48.219589 
M154.482803,44.575569 
	C154.482803,44.575569 154.523712,44.532707 154.482803,44.575569 
z"/>
<path fill="#080807" opacity="1.000000" stroke="none" 
	d="
M39.956295,50.902596 
	C39.039097,50.125740 37.837620,49.519932 37.250645,48.544388 
	C33.320988,42.013302 29.376040,35.481380 25.793356,28.759295 
	C24.991547,27.254887 24.999878,24.727848 25.696915,23.136707 
	C27.213953,19.673727 29.415016,16.510399 31.636681,12.711294 
	C36.677197,21.363262 41.495739,29.634218 46.482872,38.422127 
	C44.419739,42.926914 42.188019,46.914757 39.956295,50.902596 
z"/>
<path fill="#302E2E" opacity="1.000000" stroke="none" 
	d="
M115.350609,39.295158 
	C113.620911,39.777626 112.143890,39.890213 110.258316,40.033939 
	C110.258316,37.230793 110.258316,34.636333 110.258316,32.041874 
	C109.893387,31.936523 109.528450,31.831173 109.163521,31.725822 
	C108.399216,33.664707 107.796143,35.691490 106.806190,37.507359 
	C106.268700,38.493286 105.168488,39.471104 104.131645,39.753635 
	C103.650444,39.884766 102.493477,38.460300 102.031967,37.544865 
	C101.101120,35.698502 100.436455,33.717934 99.037277,31.959427 
	C99.037277,34.408070 99.037277,36.856712 99.037277,39.692303 
	C97.251907,39.785988 95.683174,39.868305 93.788849,39.967709 
	C93.788849,33.572685 93.788849,27.489107 93.788849,21.220398 
	C102.745499,18.029966 101.094131,27.181456 104.460205,30.450039 
	C107.830925,27.169966 106.256599,18.088680 115.603287,21.274094 
	C115.603287,27.060633 115.603287,32.992954 115.350609,39.295158 
z"/>
<path fill="#383636" opacity="1.000000" stroke="none" 
	d="
M170.364105,39.857597 
	C166.628799,39.913147 163.321854,39.913147 159.687759,39.913147 
	C159.687759,33.611893 159.687759,27.531109 159.687759,20.996634 
	C163.462646,20.996634 167.361160,20.945129 171.256042,21.040972 
	C172.016556,21.059687 173.093811,21.445259 173.449158,22.018532 
	C174.264816,23.334433 175.653442,25.590773 175.180115,26.200504 
	C172.021881,30.268911 180.720261,38.138756 170.364105,39.857597 
z"/>
<path fill="#302E2E" opacity="1.000000" stroke="none" 
	d="
M140.708923,29.308037 
	C139.664612,37.520859 135.572784,40.895981 128.064056,40.167423 
	C122.092590,39.588020 118.443329,35.351871 118.805443,29.419802 
	C119.117508,24.307566 122.583687,20.892763 128.176895,20.187243 
	C134.332840,19.410738 138.622070,22.414515 140.708923,29.308037 
M134.136536,31.231260 
	C134.298386,28.174366 133.864624,25.020754 130.118591,25.165537 
	C128.425201,25.230988 125.659607,27.422029 125.462517,28.922262 
	C125.204781,30.884155 126.442917,33.981697 128.054932,35.037857 
	C130.710541,36.777771 133.081726,35.168457 134.136536,31.231260 
z"/>
<path fill="#302E2E" opacity="1.000000" stroke="none" 
	d="
M211.373077,29.165876 
	C210.345886,30.509384 209.496033,31.497587 208.604691,32.534019 
	C209.945908,34.793118 211.280853,37.041645 212.623779,39.303619 
	C206.954056,42.133770 205.199066,37.434402 202.250687,33.442425 
	C202.250687,36.087254 202.250687,37.653038 202.250687,39.715382 
	C200.260666,39.807953 198.537231,39.888123 196.420227,39.986603 
	C196.420227,33.626602 196.420227,27.458189 196.418961,21.285713 
	C208.354462,19.390871 213.455429,21.691641 211.373077,29.165876 
z"/>
<path fill="#E9B938" opacity="1.000000" stroke="none" 
	d="
M56.996742,21.991617 
	C58.492111,19.258455 59.987480,16.525293 62.103813,12.657171 
	C64.822800,17.298702 67.163078,20.996418 69.128632,24.883621 
	C69.555168,25.727165 68.893486,27.398964 68.293533,28.434704 
	C65.885971,32.591057 63.305676,36.647350 60.086166,40.813999 
	C58.921932,39.118206 58.231888,37.372890 58.044598,35.575195 
	C57.574192,31.059954 57.331028,26.521040 56.996742,21.991617 
z"/>
<path fill="#2C2A2A" opacity="1.000000" stroke="none" 
	d="
M187.119080,24.952389 
	C186.085007,25.551882 185.506088,26.146477 184.927170,26.741070 
	C185.831039,27.175236 186.738144,27.602844 187.638046,28.045092 
	C189.027542,28.727943 190.412125,29.420809 191.798798,30.109423 
	C191.602493,30.665342 191.406189,31.221264 191.209885,31.777184 
	C189.271774,31.938705 187.333664,32.100227 184.456329,32.340027 
	C185.645004,37.799374 190.269653,34.442181 192.531113,36.082237 
	C193.344437,40.628151 192.519516,40.861324 179.091476,39.561871 
	C179.091476,33.532436 179.091476,27.465242 179.091476,21.058329 
	C183.441315,21.058329 187.845139,21.058329 192.274704,21.058329 
	C192.989655,24.906675 192.989655,24.906675 187.119080,24.952389 
z"/>
<path fill="#3E3C3C" opacity="1.000000" stroke="none" 
	d="
M143.291016,30.995743 
	C143.291000,27.404673 143.291000,24.292643 143.291000,20.922134 
	C145.490097,20.922134 147.243759,20.922134 149.594437,20.922134 
	C149.594437,25.697245 149.594437,30.409786 149.594437,35.272804 
	C152.276215,35.493362 154.383713,35.666687 156.662338,35.854088 
	C156.662338,37.201557 156.662338,38.415257 156.662338,39.798470 
	C152.262970,39.798470 148.146194,39.798470 143.291046,39.798470 
	C143.291046,36.982468 143.291046,34.228626 143.291016,30.995743 
z"/>
<path fill="#ECC439" opacity="1.000000" stroke="none" 
	d="
M56.743706,22.215672 
	C57.331028,26.521040 57.574192,31.059954 58.044598,35.575195 
	C58.231888,37.372890 58.921932,39.118206 59.794151,40.985275 
	C58.036880,44.716530 55.868557,48.349873 53.348274,51.559578 
	C52.880516,48.608303 53.033627,46.031441 52.582233,43.565231 
	C51.991047,40.335270 50.922527,37.192677 50.059330,34.012505 
	C52.203110,30.154911 54.346889,26.297318 56.743706,22.215672 
z"/>
<path fill="#ECCB37" opacity="1.000000" stroke="none" 
	d="
M49.801247,34.226383 
	C50.922527,37.192677 51.991047,40.335270 52.582233,43.565231 
	C53.033627,46.031441 52.880516,48.608303 52.995071,51.532478 
	C48.894936,51.726570 44.796040,51.524117 40.326721,51.112129 
	C42.188019,46.914757 44.419739,42.926914 46.766781,38.632263 
	C47.769119,37.030388 48.656139,35.735325 49.801247,34.226383 
z"/>
<path fill="#0E0E0E" opacity="1.000000" stroke="none" 
	d="
M11.651505,52.084240 
	C10.763353,51.457867 9.756869,50.541630 9.913069,50.251617 
	C11.924335,46.517403 14.101432,42.872509 16.458681,38.823467 
	C19.038748,43.245964 21.350601,47.208714 24.195662,52.085434 
	C19.705050,52.085434 15.889307,52.085434 11.651505,52.084240 
z"/>
<path fill="#EDC740" opacity="1.000000" stroke="none" 
	d="
M83.726562,49.766064 
	C83.240753,50.766785 82.605064,51.910294 81.916229,51.943256 
	C78.165581,52.122726 74.401848,52.028584 69.767212,52.028584 
	C72.403870,47.388718 74.637703,43.457737 77.279793,38.808315 
	C79.614349,42.749126 81.583252,46.072681 83.726562,49.766064 
z"/>
<path fill="#909191" opacity="1.000000" stroke="none" 
	d="
M130.487152,49.357971 
	C129.631821,49.410934 128.776505,49.463898 127.543488,49.005543 
	C127.097061,47.696556 127.028328,46.898888 126.959595,46.101215 
	C128.162338,45.942131 129.365067,45.783047 130.687271,46.093224 
	C130.700211,47.494312 130.593689,48.426144 130.487152,49.357971 
z"/>
<path fill="#898989" opacity="1.000000" stroke="none" 
	d="
M139.939728,48.605591 
	C138.903320,48.618790 137.959030,48.245991 137.014755,47.873192 
	C137.424164,46.956059 137.833588,46.038925 138.242996,45.121796 
	C138.839279,46.154396 139.435562,47.186993 139.939728,48.605591 
M138.643433,48.666145 
	C138.643433,48.666145 138.436630,48.547974 138.436630,48.547974 
	C138.436630,48.547974 138.481857,48.851295 138.643433,48.666145 
z"/>
<path fill="#E0E3E3" opacity="1.000000" stroke="none" 
	d="
M178.198975,46.953888 
	C178.778275,46.934113 179.357559,46.914337 180.350037,47.284256 
	C180.882172,48.423561 181.001129,49.173168 181.120102,49.922771 
	C179.662582,49.997444 178.205048,50.072121 176.437592,49.804642 
	C176.005768,49.312019 175.883911,49.161545 176.039200,49.034737 
	C176.501785,49.058971 176.687210,49.059544 177.210297,48.980705 
	C177.764954,48.252163 177.981964,47.603024 178.198975,46.953888 
z"/>
<path fill="#8D8E8E" opacity="1.000000" stroke="none" 
	d="
M181.505402,49.979321 
	C181.001129,49.173168 180.882172,48.423561 180.638474,47.314594 
	C180.693298,46.587894 180.872864,46.220554 181.445068,45.840626 
	C181.837723,45.828033 182.153473,46.151142 182.120850,46.474808 
	C182.202972,47.326839 182.317719,47.855198 182.432465,48.383560 
	C182.582672,48.358608 182.732895,48.333660 182.883102,48.308708 
	C182.883102,47.578938 182.883102,46.849167 183.023682,45.977905 
	C183.164276,45.836414 183.436035,45.544399 183.436035,45.544399 
	C184.270523,47.505898 185.444107,49.584064 181.505402,49.979321 
z"/>
<path fill="#A6A7A7" opacity="1.000000" stroke="none" 
	d="
M122.019531,46.946594 
	C122.552376,46.574318 123.085228,46.202045 123.618073,45.829773 
	C124.001381,46.567120 124.384689,47.304466 124.767998,48.041817 
	C123.995163,48.259983 123.222336,48.478153 122.450912,48.304382 
	C122.308052,47.590496 122.163795,47.268543 122.019531,46.946594 
z"/>
<path fill="#C8CACA" opacity="1.000000" stroke="none" 
	d="
M176.872635,49.060112 
	C176.687210,49.059544 176.501785,49.058971 175.790588,48.880493 
	C175.195892,48.129971 175.126923,47.557362 175.076797,46.720146 
	C175.395859,46.303688 175.696106,46.151829 175.996338,45.999973 
	C175.996338,45.999973 176.439697,45.874954 176.733353,46.293396 
	C176.975555,47.494595 176.924088,48.277351 176.872635,49.060112 
z"/>
<path fill="#848484" opacity="1.000000" stroke="none" 
	d="
M151.749649,49.286118 
	C150.578659,49.436287 149.407654,49.586460 148.069977,49.047256 
	C147.891327,47.538849 147.879364,46.719814 147.867416,45.900784 
	C147.867416,45.900784 147.903488,45.857559 148.317139,45.863937 
	C148.996872,45.940811 149.262955,46.011314 149.346008,46.368835 
	C149.413055,47.413418 149.663147,48.170979 150.373245,49.013309 
	C151.138702,49.160755 151.444168,49.223438 151.749649,49.286118 
z"/>
<path fill="#BCBDBD" opacity="1.000000" stroke="none" 
	d="
M130.772919,49.242004 
	C130.593689,48.426144 130.700211,47.494312 130.967438,46.230484 
	C133.913956,47.034817 132.939819,48.090191 130.772919,49.242004 
z"/>
<path fill="#A3A4A4" opacity="1.000000" stroke="none" 
	d="
M151.903549,49.334248 
	C151.444168,49.223438 151.138702,49.160755 150.503357,48.759392 
	C149.956253,47.661430 149.739029,46.902153 149.638657,45.876396 
	C149.761246,45.416008 149.766983,45.222107 149.772720,45.028206 
	C150.317444,45.192238 150.862167,45.356270 151.741486,46.098816 
	C152.168549,47.536339 152.261002,48.395351 152.353455,49.254360 
	C152.353455,49.254360 152.057449,49.382374 151.903549,49.334248 
z"/>
<path fill="#7D7D7D" opacity="1.000000" stroke="none" 
	d="
M175.057968,46.984749 
	C175.126923,47.557362 175.195892,48.129971 175.513458,48.856827 
	C175.883911,49.161545 176.005768,49.312019 176.108551,49.752373 
	C175.202698,49.904682 174.315964,49.767105 173.224823,49.076778 
	C173.022491,48.340328 173.024567,48.156624 173.013550,47.989136 
	C173.000443,48.005360 172.977692,48.040295 173.208374,47.937492 
	C173.618134,47.554211 173.797180,47.273727 174.246628,46.986977 
	C174.697357,46.982059 174.877670,46.983406 175.057968,46.984749 
z"/>
<path fill="#C1C3C3" opacity="1.000000" stroke="none" 
	d="
M147.599762,45.933083 
	C147.879364,46.719814 147.891327,47.538849 147.829620,48.763260 
	C147.614685,48.100887 147.473389,47.033134 147.599762,45.933083 
z"/>
<path fill="#7D7D7D" opacity="1.000000" stroke="none" 
	d="
M171.077072,47.918407 
	C171.445068,46.960930 171.813049,46.003452 172.459320,45.333321 
	C172.817612,46.427208 172.897659,47.233753 172.977692,48.040295 
	C172.977692,48.040295 173.000443,48.005360 172.687256,48.000427 
	C171.941742,47.969795 171.509399,47.944103 171.077072,47.918407 
z"/>
<path fill="#C1C3C3" opacity="1.000000" stroke="none" 
	d="
M173.208374,47.937492 
	C172.897659,47.233753 172.817612,46.427208 172.814331,45.357155 
	C173.086639,45.083824 173.282227,45.074005 173.734238,45.388367 
	C173.985870,46.139446 173.981049,46.566341 173.976227,46.993240 
	C173.797180,47.273727 173.618134,47.554211 173.208374,47.937492 
z"/>
<path fill="#6A6969" opacity="1.000000" stroke="none" 
	d="
M126.602097,46.232552 
	C127.028328,46.898888 127.097061,47.696556 127.284447,48.877884 
	C127.016937,48.295658 126.630775,47.329777 126.602097,46.232552 
z"/>
<path fill="#7D7D7D" opacity="1.000000" stroke="none" 
	d="
M177.210297,48.980705 
	C176.924088,48.277351 176.975555,47.494595 176.961853,46.322479 
	C177.251404,46.084312 177.606125,46.235500 178.079910,46.670288 
	C177.981964,47.603024 177.764954,48.252163 177.210297,48.980705 
z"/>
<path fill="#898989" opacity="1.000000" stroke="none" 
	d="
M174.246628,46.986977 
	C173.981049,46.566341 173.985870,46.139446 174.027893,45.395416 
	C174.693298,45.166218 175.321487,45.254147 175.973007,45.671024 
	C175.696106,46.151829 175.395859,46.303688 175.076797,46.720146 
	C174.877670,46.983406 174.697357,46.982059 174.246628,46.986977 
z"/>
<path fill="#7D7D7D" opacity="1.000000" stroke="none" 
	d="
M153.023239,46.021049 
	C153.204300,46.983906 153.385361,47.946766 153.254669,48.622189 
	C152.969681,47.563519 152.996460,46.792286 153.023239,46.021049 
z"/>
<path fill="#C8CACA" opacity="1.000000" stroke="none" 
	d="
M152.825256,45.946411 
	C152.996460,46.792286 152.969681,47.563519 152.905640,48.720467 
	C152.868378,49.106174 152.616592,49.210526 152.485016,49.232445 
	C152.261002,48.395351 152.168549,47.536339 152.141937,46.246677 
	C152.207794,45.816025 152.627274,45.871773 152.825256,45.946411 
z"/>
<path fill="#C8CACA" opacity="1.000000" stroke="none" 
	d="
M149.529037,46.081818 
	C149.262955,46.011314 148.996872,45.940811 148.319061,45.835854 
	C148.396133,45.495655 148.884903,45.189919 149.573212,44.956192 
	C149.766983,45.222107 149.761246,45.416008 149.634949,45.860977 
	C149.514374,46.112049 149.529037,46.081818 149.529037,46.081818 
z"/>
<path fill="#C8CACA" opacity="1.000000" stroke="none" 
	d="
M171.018753,48.179192 
	C171.509399,47.944103 171.941742,47.969795 172.700363,47.984203 
	C173.024567,48.156624 173.022491,48.340328 173.020172,48.799980 
	C173.019943,49.075935 172.998199,49.019165 172.681686,49.010128 
	C171.903381,48.992081 171.441574,48.983070 170.979782,48.974060 
	C170.973328,48.796032 170.966888,48.618000 171.018753,48.179192 
z"/>
<path fill="#7D7D7D" opacity="1.000000" stroke="none" 
	d="
M171.051605,49.304546 
	C171.441574,48.983070 171.903381,48.992081 172.711700,49.010796 
	C172.413284,49.225342 171.768356,49.430187 171.051605,49.304546 
z"/>
<path fill="#FAFDFD" opacity="1.000000" stroke="none" 
	d="
M122.022385,47.244884 
	C122.163795,47.268543 122.308052,47.590496 122.253578,48.025745 
	C122.044975,47.940422 122.035103,47.741798 122.022385,47.244884 
z"/>
<path fill="#8D8E8E" opacity="1.000000" stroke="none" 
	d="
M181.691727,45.655663 
	C182.040314,45.383312 182.534912,45.283333 183.232758,45.363876 
	C183.436035,45.544399 183.164276,45.836414 182.840790,45.973404 
	C182.517288,46.110394 182.153473,46.151142 182.153473,46.151142 
	C182.153473,46.151142 181.837723,45.828033 181.691727,45.655663 
z"/>
<path fill="#7D7D7D" opacity="1.000000" stroke="none" 
	d="
M154.503265,44.554138 
	C154.523712,44.532707 154.482803,44.575569 154.503265,44.554138 
z"/>
<path fill="#F1F1F1" opacity="1.000000" stroke="none" 
	d="
M134.087601,31.634247 
	C133.081726,35.168457 130.710541,36.777771 128.054932,35.037857 
	C126.442917,33.981697 125.204781,30.884155 125.462517,28.922262 
	C125.659607,27.422029 128.425201,25.230988 130.118591,25.165537 
	C133.864624,25.020754 134.298386,28.174366 134.087601,31.634247 
z"/>
<path fill="#FCFDFC" opacity="1.000000" stroke="none" 
	d="
M138.562653,48.758720 
	C138.481857,48.851295 138.436630,48.547974 138.436630,48.547974 
	C138.436630,48.547974 138.643433,48.666145 138.562653,48.758720 
z"/>
<path fill="#FAFDFD" opacity="1.000000" stroke="none" 
	d="
M182.120850,46.474808 
	C182.153473,46.151142 182.517288,46.110394 182.700195,46.114895 
	C182.883102,46.849167 182.883102,47.578938 182.883102,48.308708 
	C182.732895,48.333660 182.582672,48.358608 182.432465,48.383560 
	C182.317719,47.855198 182.202972,47.326839 182.120850,46.474808 
z"/>
<path fill="#FAFDFD" opacity="1.000000" stroke="none" 
	d="
M149.346008,46.368835 
	C149.529037,46.081818 149.514374,46.112049 149.518097,46.127464 
	C149.739029,46.902153 149.956253,47.661430 150.043365,48.674622 
	C149.663147,48.170979 149.413055,47.413418 149.346008,46.368835 
z"/>
</svg>